<svg version="1.1" viewBox="0.0 0.0 960.0 641.2808398950132" fill="none" stroke="none" stroke-linecap="square" stroke-miterlimit="10" xmlns:xlink="http://www.w3.org/1999/xlink" xmlns="http://www.w3.org/2000/svg"><clipPath id="p.0"><path d="m0 0l960.0 0l0 641.2808l-960.0 0l0 -641.2808z" clip-rule="nonzero"/></clipPath><g clip-path="url(#p.0)"><path fill="#000000" fill-opacity="0.0" d="m0 0l960.0 0l0 641.2808l-960.0 0z" fill-rule="evenodd"/><path fill="#000000" fill-opacity="0.0" d="m0.30708662 39.538403l0 240.69292" fill-rule="evenodd"/><path stroke="#000000" stroke-width="1.0" stroke-linejoin="round" stroke-linecap="butt" d="m0.30708662 39.538403l0 240.69292" fill-rule="evenodd"/><path fill="#000000" fill-opacity="0.0" d="m0 2.5327158l960.0 0" fill-rule="evenodd"/><path stroke="#000000" stroke-width="1.0" stroke-linejoin="round" stroke-linecap="butt" d="m0 2.5327158l960.0 0" fill-rule="evenodd"/><path fill="#000000" fill-opacity="0.0" d="m0 320.6404l960.0 0" fill-rule="evenodd"/><path stroke="#000000" stroke-width="1.0" stroke-linejoin="round" stroke-linecap="butt" d="m0 320.6404l960.0 0" fill-rule="evenodd"/><path fill="#000000" fill-opacity="0.0" d="m0 636.77954l960.0 0" fill-rule="evenodd"/><path stroke="#000000" stroke-width="1.0" stroke-linejoin="round" stroke-linecap="butt" d="m0 636.77954l960.0 0" fill-rule="evenodd"/><path fill="#000000" fill-opacity="0.0" d="m319.69553 39.538403l0 240.69292" fill-rule="evenodd"/><path stroke="#000000" stroke-width="1.0" stroke-linejoin="round" stroke-linecap="butt" d="m319.69553 39.538403l0 240.69292" fill-rule="evenodd"/><path fill="#000000" fill-opacity="0.0" d="m640.31494 39.538403l0 240.69292" fill-rule="evenodd"/><path stroke="#000000" stroke-width="1.0" stroke-linejoin="round" stroke-linecap="butt" d="m640.31494 39.538403l0 240.69292" fill-rule="evenodd"/><path fill="#000000" fill-opacity="0.0" d="m955.49866 39.53836l0 240.6929" fill-rule="evenodd"/><path stroke="#000000" stroke-width="1.0" stroke-linejoin="round" stroke-linecap="butt" d="m955.49866 39.53836l0 240.6929" fill-rule="evenodd"/><path fill="#000000" fill-opacity="0.0" d="m0.30708662 360.60004l0 240.69293" fill-rule="evenodd"/><path stroke="#000000" stroke-width="1.0" stroke-linejoin="round" stroke-linecap="butt" d="m0.30708662 360.60004l0 240.69293" fill-rule="evenodd"/><path fill="#000000" fill-opacity="0.0" d="m319.69553 360.60266l0 240.69293" fill-rule="evenodd"/><path stroke="#000000" stroke-width="1.0" stroke-linejoin="round" stroke-linecap="butt" d="m319.69553 360.60266l0 240.69293" fill-rule="evenodd"/><path fill="#000000" fill-opacity="0.0" d="m639.8425 360.60266l0 240.69293" fill-rule="evenodd"/><path stroke="#000000" stroke-width="1.0" stroke-linejoin="round" stroke-linecap="butt" d="m639.8425 360.60266l0 240.69293" fill-rule="evenodd"/><path fill="#000000" fill-opacity="0.0" d="m955.49866 358.3638l0 240.6929" fill-rule="evenodd"/><path stroke="#000000" stroke-width="1.0" stroke-linejoin="round" stroke-linecap="butt" d="m955.49866 358.3638l0 240.6929" fill-rule="evenodd"/></g></svg>