<svg version="1.1" viewBox="0.0 0.0 384.0 96.0" fill="none" stroke="none" stroke-linecap="square" stroke-miterlimit="10" xmlns:xlink="http://www.w3.org/1999/xlink" xmlns="http://www.w3.org/2000/svg"><clipPath id="p.0"><path d="m0 0l384.0 0l0 96.0l-384.0 0l0 -96.0z" clip-rule="nonzero"/></clipPath><g clip-path="url(#p.0)"><path fill="#000000" fill-opacity="0.0" d="m0 0l384.0 0l0 96.0l-384.0 0z" fill-rule="evenodd"/><path fill="#000000" d="m0 0l96.0 0l0 96.0l-96.0 0z" fill-rule="evenodd"/><path fill="#ffffff" d="m33.703125 70.94l0 -45.8125l30.90625 0l0 5.40625l-24.84375 0l0 14.1875l21.5 0l0 5.40625l-21.5 0l0 20.8125l-6.0625 0z" fill-rule="nonzero"/><path fill="#000000" d="m96.0 0l288.0 0l0 96.0l-288.0 0z" fill-rule="evenodd"/><path fill="#ffffff" d="m117.62205 16.80315l244.75592 0l0 62.393703l-244.75592 0z" fill-rule="evenodd"/><path fill="#000000" fill-opacity="0.0" d="m117.62205 16.80315l244.75592 0l0 62.393703l-244.75592 0z" fill-rule="evenodd"/><path fill="#000000" d="m131.73549 56.399998l0 -16.703125l11.265625 0l0 1.96875l-9.046875 0l0 5.171875l7.828125 0l0 1.96875l-7.828125 0l0 7.59375l-2.21875 0zm13.468506 -8.140625q0 -4.15625 2.234375 -6.5q2.234375 -2.359375 5.765625 -2.359375q2.3125 0 4.171875 1.109375q1.859375 1.109375 2.828125 3.09375q0.96875 1.96875 0.96875 4.46875q0 2.546875 -1.03125 4.546875q-1.015625 2.0 -2.90625 3.03125q-1.875 1.03125 -4.046875 1.03125q-2.359375 0 -4.21875 -1.140625q-1.84375 -1.140625 -2.8125 -3.109375q-0.953125 -1.96875 -0.953125 -4.171875zm2.28125 0.046875q0 3.015625 1.625 4.75q1.625 1.734375 4.0625 1.734375q2.5 0 4.109375 -1.75q1.609375 -1.75 1.609375 -4.984375q0 -2.03125 -0.6875 -3.546875q-0.6875 -1.53125 -2.015625 -2.359375q-1.328125 -0.84375 -2.96875 -0.84375q-2.359375 0 -4.046875 1.609375q-1.6875 1.609375 -1.6875 5.390625zm27.48912 -8.609375l2.21875 0l0 9.65625q0 2.515625 -0.578125 4.0q-0.5625 1.46875 -2.046875 2.40625q-1.484375 0.921875 -3.90625 0.921875q-2.34375 0 -3.84375 -0.796875q-1.484375 -0.8125 -2.125 -2.34375q-0.640625 -1.53125 -0.640625 -4.1875l0 -9.65625l2.21875 0l0 9.640625q0 2.171875 0.40625 3.203125q0.40625 1.03125 1.390625 1.59375q0.984375 0.5625 2.40625 0.5625q2.4375 0 3.46875 -1.109375q1.03125 -1.109375 1.03125 -4.25l0 -9.640625zm5.8780823 16.703125l0 -16.703125l2.265625 0l8.765625 13.109375l0 -13.109375l2.125 0l0 16.703125l-2.265625 0l-8.78125 -13.125l0 13.125l-2.109375 0zm16.862457 0l0 -16.703125l5.75 0q1.953125 0 2.984375 0.25q1.421875 0.328125 2.4375 1.1875q1.328125 1.125 1.984375 2.859375q0.65625 1.734375 0.65625 3.96875q0 1.90625 -0.453125 3.375q-0.4375 1.46875 -1.140625 2.4375q-0.6875 0.953125 -1.515625 1.515625q-0.828125 0.546875 -2.0 0.828125q-1.15625 0.28125 -2.671875 0.28125l-6.03125 0zm2.21875 -1.96875l3.5625 0q1.640625 0 2.578125 -0.296875q0.953125 -0.3125 1.515625 -0.875q0.78125 -0.796875 1.21875 -2.109375q0.4375 -1.328125 0.4375 -3.21875q0 -2.625 -0.859375 -4.03125q-0.859375 -1.40625 -2.09375 -1.890625q-0.890625 -0.34375 -2.859375 -0.34375l-3.5 0l0 12.765625zm14.674957 1.96875l0 -16.703125l12.078125 0l0 1.96875l-9.859375 0l0 5.125l9.234375 0l0 1.953125l-9.234375 0l0 5.6875l10.25 0l0 1.96875l-12.46875 0zm15.544052 0l0 -16.703125l7.40625 0q2.234375 0 3.390625 0.453125q1.171875 0.453125 1.859375 1.59375q0.703125 1.140625 0.703125 2.515625q0 1.78125 -1.15625 3.0q-1.140625 1.21875 -3.546875 1.546875q0.875 0.421875 1.328125 0.828125q0.96875 0.890625 1.828125 2.21875l2.90625 4.546875l-2.78125 0l-2.203125 -3.46875q-0.96875 -1.515625 -1.59375 -2.3125q-0.625 -0.796875 -1.125 -1.109375q-0.5 -0.3125 -1.0 -0.4375q-0.390625 -0.09375 -1.234375 -0.09375l-2.5625 0l0 7.421875l-2.21875 0zm2.21875 -9.328125l4.75 0q1.515625 0 2.359375 -0.3125q0.859375 -0.3125 1.296875 -1.0q0.453125 -0.6875 0.453125 -1.5q0 -1.1875 -0.859375 -1.953125q-0.859375 -0.765625 -2.71875 -0.765625l-5.28125 0l0 5.53125zm20.32814 3.96875l2.078125 -0.1875q0.15625 1.25 0.6875 2.0625q0.546875 0.796875 1.6875 1.296875q1.140625 0.484375 2.5625 0.484375q1.265625 0 2.234375 -0.375q0.96875 -0.375 1.4375 -1.03125q0.46875 -0.65625 0.46875 -1.421875q0 -0.78125 -0.453125 -1.375q-0.453125 -0.59375 -1.5 -0.984375q-0.671875 -0.265625 -2.96875 -0.8125q-2.296875 -0.5625 -3.21875 -1.046875q-1.203125 -0.625 -1.796875 -1.546875q-0.578125 -0.9375 -0.578125 -2.078125q0 -1.265625 0.71875 -2.359375q0.71875 -1.109375 2.09375 -1.671875q1.375 -0.578125 3.0625 -0.578125q1.859375 0 3.265625 0.609375q1.421875 0.59375 2.1875 1.75q0.765625 1.15625 0.828125 2.625l-2.125 0.171875q-0.171875 -1.59375 -1.15625 -2.390625q-0.984375 -0.8125 -2.90625 -0.8125q-2.0 0 -2.921875 0.734375q-0.921875 0.734375 -0.921875 1.765625q0 0.90625 0.65625 1.484375q0.640625 0.578125 3.328125 1.1875q2.6875 0.609375 3.703125 1.0625q1.453125 0.671875 2.140625 1.703125q0.703125 1.03125 0.703125 2.375q0 1.328125 -0.765625 2.515625q-0.765625 1.171875 -2.203125 1.828125q-1.421875 0.65625 -3.203125 0.65625q-2.265625 0 -3.796875 -0.65625q-1.53125 -0.65625 -2.40625 -1.984375q-0.875 -1.328125 -0.921875 -3.0zm28.231537 -0.5l2.203125 0.5625q-0.6875 2.71875 -2.5 4.15625q-1.796875 1.421875 -4.40625 1.421875q-2.703125 0 -4.40625 -1.09375q-1.6875 -1.09375 -2.578125 -3.171875q-0.875 -2.09375 -0.875 -4.484375q0 -2.609375 1.0 -4.546875q1.0 -1.953125 2.828125 -2.953125q1.84375 -1.015625 4.0625 -1.015625q2.5 0 4.203125 1.28125q1.71875 1.265625 2.390625 3.578125l-2.171875 0.515625q-0.578125 -1.8125 -1.6875 -2.640625q-1.109375 -0.84375 -2.78125 -0.84375q-1.921875 0 -3.21875 0.921875q-1.296875 0.921875 -1.828125 2.484375q-0.515625 1.546875 -0.515625 3.203125q0 2.125 0.625 3.71875q0.625 1.59375 1.921875 2.375q1.3125 0.78125 2.84375 0.78125q1.859375 0 3.140625 -1.0625q1.296875 -1.078125 1.75 -3.1875zm5.0030823 5.859375l0 -16.703125l2.203125 0l0 6.859375l8.671875 0l0 -6.859375l2.21875 0l0 16.703125l-2.21875 0l0 -7.875l-8.671875 0l0 7.875l-2.203125 0zm16.096832 -8.140625q0 -4.15625 2.234375 -6.5q2.234375 -2.359375 5.765625 -2.359375q2.3125 0 4.171875 1.109375q1.859375 1.109375 2.828125 3.09375q0.96875 1.96875 0.96875 4.46875q0 2.546875 -1.03125 4.546875q-1.015625 2.0 -2.90625 3.03125q-1.875 1.03125 -4.046875 1.03125q-2.359375 0 -4.21875 -1.140625q-1.84375 -1.140625 -2.8125 -3.109375q-0.953125 -1.96875 -0.953125 -4.171875zm2.28125 0.046875q0 3.015625 1.625 4.75q1.625 1.734375 4.0625 1.734375q2.5 0 4.109375 -1.75q1.609375 -1.75 1.609375 -4.984375q0 -2.03125 -0.6875 -3.546875q-0.6875 -1.53125 -2.015625 -2.359375q-1.328125 -0.84375 -2.96875 -0.84375q-2.359375 0 -4.046875 1.609375q-1.6875 1.609375 -1.6875 5.390625zm15.864136 -0.046875q0 -4.15625 2.234375 -6.5q2.234375 -2.359375 5.765625 -2.359375q2.3125 0 4.171875 1.109375q1.859375 1.109375 2.828125 3.09375q0.96875 1.96875 0.96875 4.46875q0 2.546875 -1.03125 4.546875q-1.015625 2.0 -2.90625 3.03125q-1.875 1.03125 -4.046875 1.03125q-2.359375 0 -4.21875 -1.140625q-1.84375 -1.140625 -2.8125 -3.109375q-0.953125 -1.96875 -0.953125 -4.171875zm2.28125 0.046875q0 3.015625 1.625 4.75q1.625 1.734375 4.0625 1.734375q2.5 0 4.109375 -1.75q1.609375 -1.75 1.609375 -4.984375q0 -2.03125 -0.6875 -3.546875q-0.6875 -1.53125 -2.015625 -2.359375q-1.328125 -0.84375 -2.96875 -0.84375q-2.359375 0 -4.046875 1.609375q-1.6875 1.609375 -1.6875 5.390625zm16.44223 8.09375l0 -16.703125l2.21875 0l0 14.734375l8.21875 0l0 1.96875l-10.4375 0z" fill-rule="nonzero"/><path fill="#000000" d="m83.396324 0l30.58268 0l0 96.0l-30.58268 0z" fill-rule="evenodd"/></g></svg>