<svg version="1.1" viewBox="0.0 0.0 96.0 96.0" fill="none" stroke="none" stroke-linecap="square" stroke-miterlimit="10" xmlns:xlink="http://www.w3.org/1999/xlink" xmlns="http://www.w3.org/2000/svg"><clipPath id="p.0"><path d="m0 0l96.0 0l0 96.0l-96.0 0l0 -96.0z" clip-rule="nonzero"/></clipPath><g clip-path="url(#p.0)"><path fill="#000000" fill-opacity="0.0" d="m0 0l96.0 0l0 96.0l-96.0 0z" fill-rule="evenodd"/><path fill="#ffffff" d="m0 -0.007874016l96.0 0l0 96.0l-96.0 0z" fill-rule="evenodd"/><path fill="#000000" d="m0 0l96.0 0l0 96.0l-96.0 0z" fill-rule="evenodd"/><path fill="#000000" d="m12.359375 70.94l0 -45.8125l30.90625 0l0 5.40625l-24.84375 0l0 14.1875l21.5 0l0 5.40625l-21.5 0l0 20.8125l-6.0625 0zm36.71875 -14.71875l5.71875 -0.5q0.40625 3.4375 1.890625 5.640625q1.484375 2.203125 4.609375 3.5625q3.125 1.359375 7.03125 1.359375q3.46875 0 6.125 -1.03125q2.65625 -1.03125 3.953125 -2.828125q1.296875 -1.796875 1.296875 -3.921875q0 -2.15625 -1.25 -3.765625q-1.25 -1.609375 -4.125 -2.703125q-1.84375 -0.71875 -8.15625 -2.234375q-6.3125 -1.515625 -8.84375 -2.859375q-3.28125 -1.71875 -4.890625 -4.265625q-1.609375 -2.546875 -1.609375 -5.703125q0 -3.46875 1.96875 -6.484375q1.96875 -3.015625 5.75 -4.578125q3.78125 -1.5625 8.40625 -1.5625q5.09375 0 8.984375 1.640625q3.890625 1.640625 5.984375 4.828125q2.09375 3.1875 2.25 7.21875l-5.8125 0.4375q-0.46875 -4.34375 -3.171875 -6.5625q-2.703125 -2.21875 -7.984375 -2.21875q-5.5 0 -8.015625 2.015625q-2.515625 2.015625 -2.515625 4.859375q0 2.46875 1.78125 4.0625q1.75 1.59375 9.140625 3.265625q7.390625 1.671875 10.140625 2.921875q4.0 1.84375 5.90625 4.671875q1.90625 2.828125 1.90625 6.515625q0 3.65625 -2.09375 6.890625q-2.09375 3.234375 -6.015625 5.03125q-3.921875 1.796875 -8.828125 1.796875q-6.21875 0 -10.421875 -1.8125q-4.203125 -1.8125 -6.59375 -5.453125q-2.390625 -3.640625 -2.515625 -8.234375z" fill-rule="nonzero"/><path fill="#000000" fill-opacity="0.0" d="m0.015748031 -0.007874016l96.0 0l0 96.0l-96.0 0z" fill-rule="evenodd"/><path fill="#ffffff" d="m33.718872 70.93213l0 -45.8125l30.90625 0l0 5.40625l-24.84375 0l0 14.1875l21.5 0l0 5.40625l-21.5 0l0 20.8125l-6.0625 0z" fill-rule="nonzero"/></g></svg>